<svg width="48" height="63" viewBox="0 0 48 63" fill="none" xmlns="http://www.w3.org/2000/svg">
<path d="M10.5683 51.6074C6.07186 40.6495 11.9436 30.2776 16.6597 21.9432C18.293 19.0507 19.8447 16.3191 20.6662 14.0533C21.3195 12.2434 21.6421 10.5797 21.616 8.97461C19.1979 13.7696 15.2004 17.4269 11.1318 21.0451C6.74069 24.9502 2.29159 29.2666 0.648487 34.8946C-0.595271 39.1582 -0.0309658 43.9158 2.17807 47.7713C4.29646 51.4717 7.99752 53.5636 12.1094 54.7063C11.5216 53.7115 11.0066 52.6758 10.5683 51.6074Z" fill="#FFC24D"/>
<path d="M23.3661 0C26.5338 5.07949 27.0067 9.97693 24.9651 15.5993C21.5956 24.8781 9.6937 37.4525 14.7986 49.8903C17.2257 55.8045 21.4208 58.6124 25.9115 59.4512C19.7507 54.5903 18.8965 47.748 21.3383 42.4507C24.2709 36.0977 31.7 31.5749 35.165 24.8302C39.8354 31.8407 45.7749 49.0492 36.8677 58.1142C39.2744 57.1113 41.3283 55.72 42.7313 54.2229C55.6237 40.4734 43.1927 10.8587 23.3661 0Z" fill="#43AAFF"/>
<path d="M35 35.1602C35.6362 38.9661 37.7603 55.8658 25.1904 62.1172C32.0666 54.9507 34.1744 42.9639 35 35.1602Z" fill="#43AAFF"/>
</svg>
