<svg width="225" height="35" viewBox="0 0 225 35" fill="none" xmlns="http://www.w3.org/2000/svg">
<g clip-path="url(#clip0_4_24)">
<path d="M167.556 20.2413L167.027 27.6867C167.784 27.6867 168.112 27.3613 168.505 26.9707L172.056 23.5773L179.413 28.9653C180.763 29.7173 181.713 29.3213 182.077 27.724L186.907 5.09468L186.908 5.09334C187.336 3.09868 186.187 2.31868 184.872 2.80801L156.485 13.676C154.548 14.428 154.577 15.508 156.156 15.9973L163.413 18.2547L180.271 7.70668C181.064 7.18134 181.785 7.47201 181.192 7.99734L167.556 20.2413Z" fill="#039BE5"/>
</g>
<g clip-path="url(#clip1_4_24)">
<path d="M210.321 2.01619C202.926 2.36829 197.091 8.5267 197.113 15.9298C197.12 18.1847 197.664 20.3129 198.625 22.1934L197.15 29.35C197.071 29.7371 197.42 30.0761 197.804 29.985L204.817 28.3236C206.619 29.2211 208.642 29.7394 210.784 29.7721C218.342 29.8875 224.644 23.8862 224.88 16.3308C225.132 8.23199 218.448 1.62914 210.321 2.01619ZM218.689 23.5756C216.635 25.6293 213.904 26.7603 211 26.7603C209.299 26.7603 207.671 26.3788 206.161 25.6263L205.184 25.1398L200.885 26.1585L201.79 21.7651L201.308 20.823C200.524 19.2871 200.127 17.6264 200.127 15.8868C200.127 12.9824 201.258 10.2519 203.311 8.19811C205.347 6.16274 208.122 5.0133 211 5.0133C213.905 5.01337 216.635 6.14439 218.689 8.19804C220.742 10.2518 221.874 12.9823 221.874 15.8866C221.874 18.7652 220.724 21.5403 218.689 23.5756Z" fill="#7AD06D"/>
<path d="M217.74 18.8985L215.05 18.1261C214.696 18.0246 214.315 18.1249 214.058 18.3875L213.4 19.0576C213.122 19.3402 212.702 19.431 212.334 19.2825C211.062 18.7676 208.385 16.3877 207.702 15.1972C207.505 14.8538 207.537 14.4245 207.779 14.1112L208.354 13.3682C208.579 13.0772 208.626 12.6862 208.477 12.3497L207.346 9.79016C207.074 9.1771 206.291 8.99864 205.779 9.4315C205.029 10.0665 204.138 11.0313 204.029 12.1003C203.839 13.9849 204.647 16.3607 207.703 19.2133C211.234 22.509 214.062 22.9444 215.903 22.4984C216.947 22.2455 217.782 21.2315 218.308 20.4013C218.667 19.8352 218.384 19.0835 217.74 18.8985Z" fill="#7AD06D"/>
</g>
<path d="M4.85263 7.804C5.63663 7.804 6.28063 8.048 6.78463 8.536C7.28863 9.016 7.54063 9.632 7.54063 10.384C7.54063 11.144 7.28463 11.772 6.77263 12.268C6.26063 12.756 5.61263 13 4.82863 13H1.79263V4.6H6.92863V5.596H2.83663V7.804H4.85263ZM4.75663 11.968C5.25263 11.968 5.66063 11.82 5.98063 11.524C6.30063 11.228 6.46063 10.852 6.46063 10.396C6.46063 9.932 6.30063 9.556 5.98063 9.268C5.66863 8.98 5.26463 8.836 4.76863 8.836H2.83663V11.968H4.75663ZM11.636 8.56C12.316 8.56 12.872 8.768 13.304 9.184C13.736 9.592 13.952 10.128 13.952 10.792C13.952 11.44 13.736 11.972 13.304 12.388C12.872 12.796 12.316 13 11.636 13H9.032V6.52H10.028V8.56H11.636ZM15.128 6.52H16.148V13H15.128V6.52ZM11.504 12.088C11.928 12.088 12.268 11.968 12.524 11.728C12.78 11.488 12.908 11.176 12.908 10.792C12.908 10.4 12.78 10.084 12.524 9.844C12.268 9.596 11.928 9.472 11.504 9.472H10.028V12.088H11.504ZM21.0638 13.144C20.4318 13.144 19.8558 13 19.3358 12.712C18.8238 12.416 18.4198 12.008 18.1238 11.488C17.8358 10.968 17.6918 10.392 17.6918 9.76C17.6918 8.792 18.0118 7.988 18.6518 7.348C19.2998 6.7 20.1038 6.376 21.0638 6.376C21.8318 6.376 22.4958 6.588 23.0558 7.012C23.6238 7.436 24.0078 8 24.2078 8.704H23.1998C23.0078 8.288 22.7198 7.96 22.3358 7.72C21.9598 7.48 21.5358 7.36 21.0638 7.36C20.3998 7.36 19.8438 7.592 19.3958 8.056C18.9558 8.512 18.7358 9.08 18.7358 9.76C18.7358 10.208 18.8358 10.616 19.0358 10.984C19.2358 11.344 19.5118 11.632 19.8638 11.848C20.2238 12.056 20.6238 12.16 21.0638 12.16C21.5358 12.16 21.9558 12.04 22.3238 11.8C22.6998 11.552 22.9878 11.212 23.1878 10.78H24.2198C24.0198 11.5 23.6318 12.076 23.0558 12.508C22.4878 12.932 21.8238 13.144 21.0638 13.144ZM30.5826 6.52V7.444H28.1706V13H27.1746V7.444H24.7626V6.52H30.5826ZM35.2453 6.376C36.2133 6.376 37.0093 6.696 37.6333 7.336C38.2653 7.976 38.5813 8.784 38.5813 9.76C38.5813 10.728 38.2653 11.536 37.6333 12.184C37.0093 12.824 36.2133 13.144 35.2453 13.144C34.2693 13.144 33.4653 12.808 32.8333 12.136V15.316H31.8133V6.52H32.5093L32.7133 7.516C33.0173 7.156 33.3853 6.876 33.8173 6.676C34.2573 6.476 34.7333 6.376 35.2453 6.376ZM35.1733 12.16C35.8613 12.16 36.4293 11.932 36.8773 11.476C37.3253 11.02 37.5493 10.448 37.5493 9.76C37.5493 9.072 37.3253 8.5 36.8773 8.044C36.4293 7.588 35.8613 7.36 35.1733 7.36C34.4853 7.36 33.9133 7.592 33.4573 8.056C33.0093 8.512 32.7853 9.08 32.7853 9.76C32.7853 10.208 32.8853 10.616 33.0853 10.984C33.2933 11.352 33.5813 11.64 33.9492 11.848C34.3173 12.056 34.7253 12.16 35.1733 12.16ZM45.6536 6.52H46.4696V13H45.6176L45.5096 12.016C45.2056 12.376 44.8336 12.656 44.3936 12.856C43.9616 13.048 43.4856 13.144 42.9656 13.144C42.0136 13.144 41.2176 12.824 40.5776 12.184C39.9376 11.536 39.6176 10.728 39.6176 9.76C39.6176 8.792 39.9376 7.988 40.5776 7.348C41.2176 6.7 42.0136 6.376 42.9656 6.376C43.4936 6.376 43.9736 6.476 44.4056 6.676C44.8456 6.876 45.2176 7.156 45.5216 7.516L45.6536 6.52ZM41.3336 11.476C41.7896 11.932 42.3616 12.16 43.0496 12.16C43.7376 12.16 44.3056 11.932 44.7536 11.476C45.2016 11.02 45.4256 10.448 45.4256 9.76C45.4256 9.072 45.2016 8.5 44.7536 8.044C44.3056 7.588 43.7376 7.36 43.0496 7.36C42.3616 7.36 41.7896 7.592 41.3336 8.056C40.8856 8.512 40.6616 9.08 40.6616 9.76C40.6616 10.44 40.8856 11.012 41.3336 11.476ZM50.2162 6.52H53.1922V13H52.1842V10.516H50.5642L49.0282 13H47.9002L49.5202 10.372C49.0962 10.236 48.7602 10.004 48.5122 9.676C48.2642 9.348 48.1402 8.964 48.1402 8.524C48.1402 7.948 48.3362 7.472 48.7282 7.096C49.1202 6.712 49.6162 6.52 50.2162 6.52ZM50.3002 9.532H52.1842V7.504H50.3002C49.9642 7.504 49.6922 7.6 49.4842 7.792C49.2762 7.976 49.1722 8.22 49.1722 8.524C49.1722 8.82 49.2762 9.064 49.4842 9.256C49.6922 9.44 49.9642 9.532 50.3002 9.532ZM61.2357 13.144C60.6037 13.144 60.0277 13 59.5077 12.712C58.9957 12.416 58.5917 12.008 58.2957 11.488C58.0077 10.968 57.8637 10.392 57.8637 9.76C57.8637 8.792 58.1837 7.988 58.8237 7.348C59.4717 6.7 60.2757 6.376 61.2357 6.376C62.0037 6.376 62.6677 6.588 63.2277 7.012C63.7957 7.436 64.1797 8 64.3797 8.704H63.3717C63.1797 8.288 62.8917 7.96 62.5077 7.72C62.1317 7.48 61.7077 7.36 61.2357 7.36C60.5717 7.36 60.0157 7.592 59.5677 8.056C59.1277 8.512 58.9077 9.08 58.9077 9.76C58.9077 10.208 59.0077 10.616 59.2077 10.984C59.4077 11.344 59.6837 11.632 60.0357 11.848C60.3957 12.056 60.7957 12.16 61.2357 12.16C61.7077 12.16 62.1277 12.04 62.4957 11.8C62.8717 11.552 63.1597 11.212 63.3597 10.78H64.3917C64.1917 11.5 63.8037 12.076 63.2277 12.508C62.6597 12.932 61.9957 13.144 61.2357 13.144ZM69.9851 9.64C70.3131 9.76 70.5731 9.96 70.7651 10.24C70.9651 10.52 71.0651 10.836 71.0651 11.188C71.0651 11.708 70.8731 12.14 70.4891 12.484C70.1131 12.828 69.6411 13 69.0731 13H65.8211V6.52H69.0371C69.5731 6.52 70.0091 6.676 70.3451 6.988C70.6811 7.292 70.8491 7.684 70.8491 8.164C70.8491 8.38 70.8131 8.584 70.7411 8.776C70.6691 8.968 70.5691 9.14 70.4411 9.292C70.3131 9.436 70.1611 9.552 69.9851 9.64ZM69.8411 8.344C69.8411 8.08 69.7531 7.872 69.5771 7.72C69.4011 7.56 69.1731 7.48 68.8931 7.48H66.8171V9.196H68.8931C69.1811 9.196 69.4091 9.12 69.5771 8.968C69.7531 8.808 69.8411 8.6 69.8411 8.344ZM68.9531 12.04C69.1531 12.04 69.3331 12 69.4931 11.92C69.6611 11.832 69.7891 11.716 69.8771 11.572C69.9651 11.428 70.0091 11.268 70.0091 11.092C70.0091 10.908 69.9651 10.744 69.8771 10.6C69.7891 10.448 69.6611 10.332 69.4931 10.252C69.3331 10.172 69.1491 10.132 68.9411 10.132H66.8171V12.04H68.9531ZM74.4037 6.52H77.3797V13H76.3717V10.516H74.7517L73.2157 13H72.0877L73.7077 10.372C73.2837 10.236 72.9477 10.004 72.6997 9.676C72.4517 9.348 72.3277 8.964 72.3277 8.524C72.3277 7.948 72.5237 7.472 72.9157 7.096C73.3077 6.712 73.8037 6.52 74.4037 6.52ZM74.4877 9.532H76.3717V7.504H74.4877C74.1517 7.504 73.8797 7.6 73.6717 7.792C73.4637 7.976 73.3597 8.22 73.3597 8.524C73.3597 8.82 73.4637 9.064 73.6717 9.256C73.8797 9.44 74.1517 9.532 74.4877 9.532ZM82.7985 9.58C83.3905 9.9 83.6865 10.428 83.6865 11.164C83.6865 11.548 83.5785 11.892 83.3625 12.196C83.1545 12.492 82.8585 12.724 82.4745 12.892C82.0985 13.06 81.6745 13.144 81.2025 13.144C80.5145 13.144 79.9465 12.968 79.4985 12.616C79.0585 12.264 78.8105 11.792 78.7545 11.2H79.6785C79.7425 11.504 79.9105 11.744 80.1825 11.92C80.4545 12.088 80.7945 12.172 81.2025 12.172C81.6345 12.172 81.9905 12.072 82.2705 11.872C82.5505 11.672 82.6905 11.408 82.6905 11.08C82.6905 10.776 82.5705 10.524 82.3305 10.324C82.0985 10.124 81.8025 10.024 81.4425 10.024H80.4825V9.196H81.4425C81.7785 9.196 82.0465 9.112 82.2465 8.944C82.4545 8.768 82.5585 8.544 82.5585 8.272C82.5585 7.976 82.4345 7.736 82.1865 7.552C81.9385 7.368 81.6105 7.276 81.2025 7.276C80.8425 7.276 80.5425 7.356 80.3025 7.516C80.0625 7.676 79.9105 7.892 79.8465 8.164H78.9225C78.9545 7.812 79.0705 7.5 79.2705 7.228C79.4785 6.956 79.7505 6.748 80.0865 6.604C80.4305 6.452 80.8105 6.376 81.2265 6.376C81.8905 6.376 82.4385 6.548 82.8705 6.892C83.3025 7.236 83.5185 7.668 83.5185 8.188C83.5185 8.812 83.2785 9.276 82.7985 9.58ZM87.8899 8.56C88.5699 8.56 89.1259 8.768 89.5579 9.184C89.9899 9.592 90.2059 10.128 90.2059 10.792C90.2059 11.44 89.9899 11.972 89.5579 12.388C89.1259 12.796 88.5699 13 87.8899 13H85.2859V6.52H86.2819V8.56H87.8899ZM87.7579 12.088C88.1819 12.088 88.5219 11.968 88.7779 11.728C89.0339 11.488 89.1619 11.176 89.1619 10.792C89.1619 10.4 89.0339 10.084 88.7779 9.844C88.5219 9.596 88.1819 9.472 87.7579 9.472H86.2819V12.088H87.7579ZM97.306 13.144C96.674 13.144 96.098 13 95.578 12.712C95.066 12.416 94.662 12.008 94.366 11.488C94.078 10.968 93.934 10.392 93.934 9.76C93.934 8.792 94.254 7.988 94.894 7.348C95.542 6.7 96.346 6.376 97.306 6.376C98.074 6.376 98.738 6.588 99.298 7.012C99.866 7.436 100.25 8 100.45 8.704H99.442C99.25 8.288 98.962 7.96 98.578 7.72C98.202 7.48 97.778 7.36 97.306 7.36C96.642 7.36 96.086 7.592 95.638 8.056C95.198 8.512 94.978 9.08 94.978 9.76C94.978 10.208 95.078 10.616 95.278 10.984C95.478 11.344 95.754 11.632 96.106 11.848C96.466 12.056 96.866 12.16 97.306 12.16C97.778 12.16 98.198 12.04 98.566 11.8C98.942 11.552 99.23 11.212 99.43 10.78H100.462C100.262 11.5 99.874 12.076 99.298 12.508C98.73 12.932 98.066 13.144 97.306 13.144ZM109.496 6.52H110.492V13H109.496V10.132H106.028V13H105.032V6.52H106.028V9.172H109.496V6.52ZM118.075 6.52H118.891V13H118.039L117.931 12.016C117.627 12.376 117.255 12.656 116.815 12.856C116.383 13.048 115.907 13.144 115.387 13.144C114.435 13.144 113.639 12.824 112.999 12.184C112.359 11.536 112.039 10.728 112.039 9.76C112.039 8.792 112.359 7.988 112.999 7.348C113.639 6.7 114.435 6.376 115.387 6.376C115.915 6.376 116.395 6.476 116.827 6.676C117.267 6.876 117.639 7.156 117.943 7.516L118.075 6.52ZM113.755 11.476C114.211 11.932 114.783 12.16 115.471 12.16C116.159 12.16 116.727 11.932 117.175 11.476C117.623 11.02 117.847 10.448 117.847 9.76C117.847 9.072 117.623 8.5 117.175 8.044C116.727 7.588 116.159 7.36 115.471 7.36C114.783 7.36 114.211 7.592 113.755 8.056C113.307 8.512 113.083 9.08 113.083 9.76C113.083 10.44 113.307 11.012 113.755 11.476ZM128.998 13H128.014L127.09 8.188L124.798 12.868H124.57L122.29 8.188L121.366 13H120.382L121.618 6.52H122.47L124.69 11.056L126.898 6.52H127.75L128.998 13ZM135.261 6.52H135.825V13H134.865V8.368L131.085 13H130.497V6.52H131.469V11.116L135.261 6.52ZM37.5358 26.64C37.8638 26.76 38.1238 26.96 38.3158 27.24C38.5158 27.52 38.6158 27.836 38.6158 28.188C38.6158 28.708 38.4238 29.14 38.0398 29.484C37.6638 29.828 37.1918 30 36.6238 30H33.3718V23.52H36.5878C37.1238 23.52 37.5598 23.676 37.8958 23.988C38.2318 24.292 38.3998 24.684 38.3998 25.164C38.3998 25.38 38.3638 25.584 38.2918 25.776C38.2198 25.968 38.1198 26.14 37.9918 26.292C37.8638 26.436 37.7118 26.552 37.5358 26.64ZM37.3918 25.344C37.3918 25.08 37.3038 24.872 37.1278 24.72C36.9518 24.56 36.7238 24.48 36.4438 24.48H34.3678V26.196H36.4438C36.7318 26.196 36.9598 26.12 37.1278 25.968C37.3038 25.808 37.3918 25.6 37.3918 25.344ZM36.5038 29.04C36.7038 29.04 36.8838 29 37.0438 28.92C37.2118 28.832 37.3398 28.716 37.4278 28.572C37.5158 28.428 37.5598 28.268 37.5598 28.092C37.5598 27.908 37.5158 27.744 37.4278 27.6C37.3398 27.448 37.2118 27.332 37.0438 27.252C36.8838 27.172 36.6998 27.132 36.4918 27.132H34.3678V29.04H36.5038ZM51.4551 30H50.4711L49.5471 25.188L47.2551 29.868H47.0271L44.7471 25.188L43.8231 30H42.8391L44.0751 23.52H44.9271L47.1471 28.056L49.3551 23.52H50.2071L51.4551 30ZM58.967 26.784C58.967 26.872 58.959 26.996 58.943 27.156H53.411C53.491 27.756 53.739 28.24 54.155 28.608C54.571 28.968 55.083 29.148 55.691 29.148C56.139 29.148 56.535 29.052 56.879 28.86C57.231 28.66 57.511 28.38 57.719 28.02H58.787C58.515 28.692 58.107 29.216 57.563 29.592C57.019 29.96 56.395 30.144 55.691 30.144C54.755 30.144 53.971 29.82 53.339 29.172C52.707 28.524 52.391 27.72 52.391 26.76C52.391 25.792 52.707 24.988 53.339 24.348C53.971 23.7 54.755 23.376 55.691 23.376C56.659 23.376 57.447 23.704 58.055 24.36C58.663 25.016 58.967 25.824 58.967 26.784ZM55.691 24.348C55.307 24.348 54.955 24.424 54.635 24.576C54.323 24.728 54.063 24.948 53.855 25.236C53.647 25.516 53.507 25.84 53.435 26.208H57.935C57.863 25.832 57.723 25.504 57.515 25.224C57.307 24.936 57.047 24.72 56.735 24.576C56.423 24.424 56.075 24.348 55.691 24.348ZM63.345 30.144C62.713 30.144 62.137 30 61.617 29.712C61.105 29.416 60.701 29.008 60.405 28.488C60.117 27.968 59.973 27.392 59.973 26.76C59.973 25.792 60.293 24.988 60.933 24.348C61.581 23.7 62.385 23.376 63.345 23.376C64.113 23.376 64.777 23.588 65.337 24.012C65.905 24.436 66.289 25 66.489 25.704H65.481C65.289 25.288 65.001 24.96 64.617 24.72C64.241 24.48 63.817 24.36 63.345 24.36C62.681 24.36 62.125 24.592 61.677 25.056C61.237 25.512 61.017 26.08 61.017 26.76C61.017 27.208 61.117 27.616 61.317 27.984C61.517 28.344 61.793 28.632 62.145 28.848C62.505 29.056 62.905 29.16 63.345 29.16C63.817 29.16 64.237 29.04 64.605 28.8C64.981 28.552 65.269 28.212 65.469 27.78H66.501C66.301 28.5 65.913 29.076 65.337 29.508C64.769 29.932 64.105 30.144 63.345 30.144ZM70.7864 30.144C70.1544 30.144 69.5784 30 69.0584 29.712C68.5464 29.416 68.1424 29.008 67.8464 28.488C67.5584 27.968 67.4144 27.392 67.4144 26.76C67.4144 25.792 67.7344 24.988 68.3744 24.348C69.0224 23.7 69.8264 23.376 70.7864 23.376C71.5544 23.376 72.2184 23.588 72.7784 24.012C73.3464 24.436 73.7304 25 73.9304 25.704H72.9224C72.7304 25.288 72.4424 24.96 72.0584 24.72C71.6824 24.48 71.2584 24.36 70.7864 24.36C70.1224 24.36 69.5664 24.592 69.1184 25.056C68.6784 25.512 68.4584 26.08 68.4584 26.76C68.4584 27.208 68.5584 27.616 68.7584 27.984C68.9584 28.344 69.2344 28.632 69.5864 28.848C69.9464 29.056 70.3464 29.16 70.7864 29.16C71.2584 29.16 71.6784 29.04 72.0464 28.8C72.4224 28.552 72.7104 28.212 72.9104 27.78H73.9424C73.7424 28.5 73.3544 29.076 72.7784 29.508C72.2104 29.932 71.5464 30.144 70.7864 30.144ZM81.4318 26.784C81.4318 26.872 81.4238 26.996 81.4078 27.156H75.8758C75.9558 27.756 76.2038 28.24 76.6198 28.608C77.0358 28.968 77.5478 29.148 78.1558 29.148C78.6038 29.148 78.9998 29.052 79.3438 28.86C79.6958 28.66 79.9758 28.38 80.1838 28.02H81.2518C80.9798 28.692 80.5718 29.216 80.0278 29.592C79.4838 29.96 78.8598 30.144 78.1558 30.144C77.2198 30.144 76.4358 29.82 75.8038 29.172C75.1718 28.524 74.8558 27.72 74.8558 26.76C74.8558 25.792 75.1718 24.988 75.8038 24.348C76.4358 23.7 77.2198 23.376 78.1558 23.376C79.1238 23.376 79.9118 23.704 80.5198 24.36C81.1278 25.016 81.4318 25.824 81.4318 26.784ZM78.1558 24.348C77.7718 24.348 77.4198 24.424 77.0998 24.576C76.7878 24.728 76.5278 24.948 76.3198 25.236C76.1118 25.516 75.9718 25.84 75.8998 26.208H80.3998C80.3278 25.832 80.1878 25.504 79.9798 25.224C79.7718 24.936 79.5118 24.72 79.1998 24.576C78.8878 24.424 78.5398 24.348 78.1558 24.348ZM87.4179 23.52H88.4139V30H87.4179V27.132H83.9499V30H82.9539V23.52H83.9499V26.172H87.4179V23.52ZM95.9013 29.04H96.7773V31.716H95.8413V30H90.6213V31.716H89.6853V29.04H90.3813C90.5733 28.864 90.7213 28.616 90.8253 28.296C90.9293 27.968 91.0213 27.472 91.1013 26.808C91.1893 26.136 91.2933 25.04 91.4133 23.52H95.9013V29.04ZM92.3253 24.42C92.2533 25.492 92.1773 26.328 92.0973 26.928C92.0253 27.52 91.9413 27.976 91.8453 28.296C91.7493 28.608 91.6253 28.856 91.4733 29.04H94.9053V24.42H92.3253ZM105.614 30L103.43 27.096H102.566V30H101.582V27.096H100.718L98.534 30H97.286L99.842 26.58L97.526 23.52H98.714L100.718 26.184H101.582V23.52H102.566V26.184H103.43L105.434 23.52H106.622L104.306 26.58L106.862 30H105.614ZM113.799 26.784C113.799 26.872 113.791 26.996 113.775 27.156H108.243C108.323 27.756 108.571 28.24 108.987 28.608C109.403 28.968 109.915 29.148 110.523 29.148C110.971 29.148 111.367 29.052 111.711 28.86C112.063 28.66 112.343 28.38 112.551 28.02H113.619C113.347 28.692 112.939 29.216 112.395 29.592C111.851 29.96 111.227 30.144 110.523 30.144C109.587 30.144 108.803 29.82 108.171 29.172C107.539 28.524 107.223 27.72 107.223 26.76C107.223 25.792 107.539 24.988 108.171 24.348C108.803 23.7 109.587 23.376 110.523 23.376C111.491 23.376 112.279 23.704 112.887 24.36C113.495 25.016 113.799 25.824 113.799 26.784ZM110.523 24.348C110.139 24.348 109.787 24.424 109.467 24.576C109.155 24.728 108.895 24.948 108.687 25.236C108.479 25.516 108.339 25.84 108.267 26.208H112.767C112.695 25.832 112.555 25.504 112.347 25.224C112.139 24.936 111.879 24.72 111.567 24.576C111.255 24.424 110.907 24.348 110.523 24.348ZM118.753 23.376C119.721 23.376 120.517 23.696 121.141 24.336C121.773 24.976 122.089 25.784 122.089 26.76C122.089 27.728 121.773 28.536 121.141 29.184C120.517 29.824 119.721 30.144 118.753 30.144C117.777 30.144 116.973 29.808 116.341 29.136V32.316H115.321V23.52H116.017L116.221 24.516C116.525 24.156 116.893 23.876 117.325 23.676C117.765 23.476 118.241 23.376 118.753 23.376ZM118.681 29.16C119.369 29.16 119.937 28.932 120.385 28.476C120.833 28.02 121.057 27.448 121.057 26.76C121.057 26.072 120.833 25.5 120.385 25.044C119.937 24.588 119.369 24.36 118.681 24.36C117.993 24.36 117.421 24.592 116.965 25.056C116.517 25.512 116.293 26.08 116.293 26.76C116.293 27.208 116.393 27.616 116.593 27.984C116.801 28.352 117.089 28.64 117.457 28.848C117.825 29.056 118.233 29.16 118.681 29.16ZM129.161 23.52H129.977V30H129.125L129.017 29.016C128.713 29.376 128.341 29.656 127.901 29.856C127.469 30.048 126.993 30.144 126.473 30.144C125.521 30.144 124.725 29.824 124.085 29.184C123.445 28.536 123.125 27.728 123.125 26.76C123.125 25.792 123.445 24.988 124.085 24.348C124.725 23.7 125.521 23.376 126.473 23.376C127.001 23.376 127.481 23.476 127.913 23.676C128.353 23.876 128.725 24.156 129.029 24.516L129.161 23.52ZM124.841 28.476C125.297 28.932 125.869 29.16 126.557 29.16C127.245 29.16 127.813 28.932 128.261 28.476C128.709 28.02 128.933 27.448 128.933 26.76C128.933 26.072 128.709 25.5 128.261 25.044C127.813 24.588 127.245 24.36 126.557 24.36C125.869 24.36 125.297 24.592 124.841 25.056C124.393 25.512 124.169 26.08 124.169 26.76C124.169 27.44 124.393 28.012 124.841 28.476ZM137.084 30H135.932L134.084 27.3L132.212 30H131.096L133.472 26.628L131.288 23.52H132.428L134.084 25.92L135.776 23.52H136.892L134.696 26.592L137.084 30ZM137.992 25.452V24.18H139.156V25.452H137.992ZM137.992 30V28.728H139.156V30H137.992Z" fill="#4B5258"/>
<defs>
<clipPath id="clip0_4_24">
<rect width="32" height="32" fill="white" transform="translate(155)"/>
</clipPath>
<clipPath id="clip1_4_24">
<rect width="28" height="28" fill="white" transform="translate(197 2)"/>
</clipPath>
</defs>
</svg>
