<svg width="70" height="32" viewBox="0 0 70 32" fill="none" xmlns="http://www.w3.org/2000/svg">
<g clip-path="url(#clip0_155_14455)">
<path d="M12.556 20.2412L12.0267 27.6866C12.784 27.6866 13.112 27.3612 13.5053 26.9706L17.056 23.5772L24.4133 28.9652C25.7627 29.7172 26.7133 29.3212 27.0773 27.7239L31.9067 5.09456L31.908 5.09322C32.336 3.09856 31.1867 2.31856 29.872 2.80789L1.48533 13.6759C-0.452007 14.4279 -0.422674 15.5079 1.15599 15.9972L8.41333 18.2546L25.2707 7.70656C26.064 7.18122 26.7853 7.47189 26.192 7.99722L12.556 20.2412Z" fill="#039BE5"/>
</g>
<g clip-path="url(#clip1_155_14455)">
<path d="M55.3211 2.01619C47.9263 2.36829 42.0908 8.5267 42.1132 15.9298C42.1201 18.1847 42.6644 20.3129 43.6247 22.1934L42.1503 29.35C42.0706 29.7371 42.4197 30.0761 42.8043 29.985L49.817 28.3236C51.6186 29.2211 53.6423 29.7394 55.784 29.7721C63.3422 29.8875 69.6444 23.8862 69.8799 16.3308C70.1325 8.23199 63.4482 1.62914 55.3211 2.01619ZM63.6887 23.5756C61.635 25.6293 58.9044 26.7603 56 26.7603C54.2994 26.7603 52.6713 26.3788 51.1606 25.6263L50.184 25.1398L45.8845 26.1585L46.7895 21.7651L46.3084 20.823C45.5242 19.2871 45.1266 17.6264 45.1266 15.8868C45.1266 12.9824 46.2576 10.2519 48.3113 8.19811C50.3467 6.16274 53.1218 5.0133 56.0002 5.0133C58.9046 5.01337 61.6351 6.14439 63.6888 8.19804C65.7425 10.2518 66.8735 12.9823 66.8736 15.8866C66.8735 18.7652 65.7241 21.5403 63.6887 23.5756Z" fill="#7AD06D"/>
<path d="M62.7396 18.8987L60.0497 18.1264C59.6961 18.0248 59.3152 18.1251 59.0576 18.3877L58.3998 19.0579C58.1224 19.3405 57.7015 19.4313 57.3344 19.2828C56.062 18.7678 53.3853 16.3879 52.7017 15.1975C52.5045 14.8541 52.5371 14.4248 52.7793 14.1115L53.3536 13.3685C53.5786 13.0774 53.626 12.6865 53.4772 12.35L52.3455 9.7904C52.0745 9.17735 51.2911 8.99889 50.7793 9.43174C50.0285 10.0667 49.1378 11.0316 49.0295 12.1005C48.8386 13.9852 49.6468 16.3609 52.7033 19.2136C56.2343 22.5092 59.0619 22.9446 60.903 22.4986C61.9472 22.2457 62.7817 21.2317 63.3084 20.4015C63.6674 19.8355 63.3839 19.0837 62.7396 18.8987Z" fill="#7AD06D"/>
</g>
<defs>
<clipPath id="clip0_155_14455">
<rect width="32" height="32" fill="white"/>
</clipPath>
<clipPath id="clip1_155_14455">
<rect width="28" height="28" fill="white" transform="translate(42 2)"/>
</clipPath>
</defs>
</svg>
