<svg width="28" height="28" viewBox="0 0 28 28" fill="none" xmlns="http://www.w3.org/2000/svg">
<path d="M13.2079 0.0161927C5.81314 0.368289 -0.0223685 6.5267 6.44603e-05 13.9298C0.00689479 16.1847 0.551245 18.3129 1.51151 20.1934L0.0371625 27.35C-0.0425916 27.7371 0.306559 28.0761 0.691133 27.985L7.7038 26.3236C9.50547 27.2211 11.5291 27.7394 13.6708 27.7721C21.229 27.8875 27.5312 21.8862 27.7668 14.3308C28.0193 6.23199 21.3351 -0.370859 13.2079 0.0161927ZM21.5755 21.5756C19.5218 23.6293 16.7912 24.7603 13.8869 24.7603C12.1862 24.7603 10.5581 24.3788 9.04744 23.6263L8.07083 23.1398L3.77134 24.1585L4.67636 19.7651L4.19523 18.823C3.41101 17.2871 3.01338 15.6264 3.01338 13.8868C3.01338 10.9824 4.1444 8.25189 6.19812 6.19811C8.23349 4.16274 11.0086 3.0133 13.8871 3.0133C16.7914 3.01337 19.5219 4.14439 21.5756 6.19804C23.6293 8.25176 24.7603 10.9823 24.7604 13.8866C24.7603 16.7652 23.6109 19.5403 21.5755 21.5756Z" fill="#7AD06D"/>
<path d="M20.6264 16.8987L17.9365 16.1264C17.5829 16.0248 17.2021 16.1251 16.9444 16.3877L16.2866 17.0579C16.0092 17.3405 15.5884 17.4313 15.2213 17.2828C13.9488 16.7678 11.2721 14.3879 10.5886 13.1975C10.3913 12.8541 10.424 12.4248 10.6661 12.1115L11.2404 11.3685C11.4654 11.0774 11.5129 10.6865 11.3641 10.35L10.2324 7.7904C9.9613 7.17735 9.17789 6.99889 8.66608 7.43174C7.91535 8.0667 7.02459 9.03158 6.91631 10.1005C6.7254 11.9852 7.53365 14.3609 10.5901 17.2136C14.1211 20.5092 16.9487 20.9446 18.7898 20.4986C19.834 20.2457 20.6685 19.2317 21.1952 18.4015C21.5543 17.8355 21.2707 17.0837 20.6264 16.8987Z" fill="#7AD06D"/>
</svg>
