<svg width="152" height="36" viewBox="0 0 152 36" fill="none" xmlns="http://www.w3.org/2000/svg">
<path d="M7.992 7.61C8.484 7.91 8.868 8.312 9.144 8.816C9.432 9.308 9.576 9.86 9.576 10.472C9.576 11.564 9.168 12.464 8.352 13.172C7.536 13.868 6.492 14.216 5.22 14.216C4.368 14.216 3.612 14.06 2.952 13.748C2.292 13.436 1.782 12.998 1.422 12.434C1.062 11.858 0.882 11.204 0.882 10.472C0.882 9.872 1.02 9.326 1.296 8.834C1.584 8.33 1.98 7.922 2.484 7.61C2.292 7.466 2.118 7.304 1.962 7.124C1.818 6.932 1.692 6.734 1.584 6.53C1.488 6.314 1.41 6.086 1.35 5.846C1.302 5.606 1.278 5.36 1.278 5.108C1.278 4.136 1.644 3.344 2.376 2.732C3.108 2.108 4.056 1.796 5.22 1.796C6.396 1.796 7.344 2.102 8.064 2.714C8.796 3.326 9.162 4.124 9.162 5.108C9.162 5.612 9.054 6.086 8.838 6.53C8.634 6.974 8.352 7.334 7.992 7.61ZM5.22 3.434C4.62 3.434 4.128 3.596 3.744 3.92C3.372 4.232 3.186 4.634 3.186 5.126C3.186 5.63 3.372 6.044 3.744 6.368C4.128 6.692 4.62 6.854 5.22 6.854C5.82 6.854 6.306 6.692 6.678 6.368C7.062 6.044 7.254 5.63 7.254 5.126C7.254 4.802 7.17 4.514 7.002 4.262C6.834 3.998 6.594 3.794 6.282 3.65C5.97 3.506 5.616 3.434 5.22 3.434ZM5.22 12.524C5.94 12.524 6.516 12.338 6.948 11.966C7.392 11.582 7.614 11.09 7.614 10.49C7.614 9.89 7.392 9.398 6.948 9.014C6.516 8.63 5.94 8.438 5.22 8.438C4.512 8.438 3.936 8.63 3.492 9.014C3.06 9.398 2.844 9.89 2.844 10.49C2.844 11.09 3.06 11.582 3.492 11.966C3.936 12.338 4.512 12.524 5.22 12.524ZM11.647 9.932V7.988H17.425V9.932H11.647ZM26.5897 7.61C27.0817 7.91 27.4657 8.312 27.7417 8.816C28.0297 9.308 28.1737 9.86 28.1737 10.472C28.1737 11.564 27.7657 12.464 26.9497 13.172C26.1337 13.868 25.0897 14.216 23.8177 14.216C22.9657 14.216 22.2097 14.06 21.5497 13.748C20.8897 13.436 20.3797 12.998 20.0197 12.434C19.6597 11.858 19.4797 11.204 19.4797 10.472C19.4797 9.872 19.6177 9.326 19.8937 8.834C20.1817 8.33 20.5777 7.922 21.0817 7.61C20.8897 7.466 20.7157 7.304 20.5597 7.124C20.4157 6.932 20.2897 6.734 20.1817 6.53C20.0857 6.314 20.0077 6.086 19.9477 5.846C19.8997 5.606 19.8757 5.36 19.8757 5.108C19.8757 4.136 20.2417 3.344 20.9737 2.732C21.7057 2.108 22.6537 1.796 23.8177 1.796C24.9937 1.796 25.9417 2.102 26.6617 2.714C27.3937 3.326 27.7597 4.124 27.7597 5.108C27.7597 5.612 27.6517 6.086 27.4357 6.53C27.2317 6.974 26.9497 7.334 26.5897 7.61ZM23.8177 3.434C23.2177 3.434 22.7257 3.596 22.3417 3.92C21.9697 4.232 21.7837 4.634 21.7837 5.126C21.7837 5.63 21.9697 6.044 22.3417 6.368C22.7257 6.692 23.2177 6.854 23.8177 6.854C24.4177 6.854 24.9037 6.692 25.2757 6.368C25.6597 6.044 25.8517 5.63 25.8517 5.126C25.8517 4.802 25.7677 4.514 25.5997 4.262C25.4317 3.998 25.1917 3.794 24.8797 3.65C24.5677 3.506 24.2137 3.434 23.8177 3.434ZM23.8177 12.524C24.5377 12.524 25.1137 12.338 25.5457 11.966C25.9897 11.582 26.2117 11.09 26.2117 10.49C26.2117 9.89 25.9897 9.398 25.5457 9.014C25.1137 8.63 24.5377 8.438 23.8177 8.438C23.1097 8.438 22.5337 8.63 22.0897 9.014C21.6577 9.398 21.4417 9.89 21.4417 10.49C21.4417 11.09 21.6577 11.582 22.0897 11.966C22.5337 12.338 23.1097 12.524 23.8177 12.524ZM34.7086 14.216C33.2566 14.216 32.1046 13.658 31.2526 12.542C30.4006 11.426 29.9746 9.914 29.9746 8.006C29.9746 6.098 30.3946 4.592 31.2346 3.488C32.0866 2.372 33.2446 1.814 34.7086 1.814C36.1606 1.814 37.3066 2.372 38.1466 3.488C38.9986 4.592 39.4246 6.098 39.4246 8.006C39.4246 9.914 38.9986 11.426 38.1466 12.542C37.2946 13.658 36.1486 14.216 34.7086 14.216ZM34.7086 12.38C35.5726 12.38 36.2446 11.996 36.7246 11.228C37.2166 10.46 37.4626 9.386 37.4626 8.006C37.4626 7.094 37.3486 6.314 37.1206 5.666C36.9046 5.006 36.5866 4.508 36.1666 4.172C35.7586 3.824 35.2726 3.65 34.7086 3.65C34.1326 3.65 33.6346 3.824 33.2146 4.172C32.7946 4.508 32.4766 5.006 32.2606 5.666C32.0446 6.314 31.9366 7.094 31.9366 8.006C31.9366 9.386 32.1766 10.46 32.6566 11.228C33.1486 11.996 33.8326 12.38 34.7086 12.38ZM45.9938 14.216C44.5418 14.216 43.3898 13.658 42.5378 12.542C41.6858 11.426 41.2598 9.914 41.2598 8.006C41.2598 6.098 41.6798 4.592 42.5198 3.488C43.3718 2.372 44.5298 1.814 45.9938 1.814C47.4458 1.814 48.5918 2.372 49.4318 3.488C50.2838 4.592 50.7098 6.098 50.7098 8.006C50.7098 9.914 50.2838 11.426 49.4318 12.542C48.5798 13.658 47.4338 14.216 45.9938 14.216ZM45.9938 12.38C46.8578 12.38 47.5298 11.996 48.0098 11.228C48.5018 10.46 48.7478 9.386 48.7478 8.006C48.7478 7.094 48.6338 6.314 48.4058 5.666C48.1898 5.006 47.8718 4.508 47.4518 4.172C47.0438 3.824 46.5578 3.65 45.9938 3.65C45.4178 3.65 44.9198 3.824 44.4998 4.172C44.0798 4.508 43.7618 5.006 43.5458 5.666C43.3298 6.314 43.2218 7.094 43.2218 8.006C43.2218 9.386 43.4618 10.46 43.9418 11.228C44.4338 11.996 45.1178 12.38 45.9938 12.38ZM52.815 9.932V7.988H58.593V9.932H52.815ZM59.3024 2.03H67.6004V2.318L62.9564 14H60.9044L64.9904 3.794H59.3024V2.03ZM73.3805 14.216C71.9285 14.216 70.7765 13.658 69.9245 12.542C69.0725 11.426 68.6465 9.914 68.6465 8.006C68.6465 6.098 69.0665 4.592 69.9065 3.488C70.7585 2.372 71.9165 1.814 73.3805 1.814C74.8325 1.814 75.9785 2.372 76.8185 3.488C77.6705 4.592 78.0965 6.098 78.0965 8.006C78.0965 9.914 77.6705 11.426 76.8185 12.542C75.9665 13.658 74.8205 14.216 73.3805 14.216ZM73.3805 12.38C74.2445 12.38 74.9165 11.996 75.3965 11.228C75.8885 10.46 76.1345 9.386 76.1345 8.006C76.1345 7.094 76.0205 6.314 75.7925 5.666C75.5765 5.006 75.2585 4.508 74.8385 4.172C74.4305 3.824 73.9445 3.65 73.3805 3.65C72.8045 3.65 72.3065 3.824 71.8865 4.172C71.4665 4.508 71.1485 5.006 70.9325 5.666C70.7165 6.314 70.6085 7.094 70.6085 8.006C70.6085 9.386 70.8485 10.46 71.3285 11.228C71.8205 11.996 72.5045 12.38 73.3805 12.38ZM84.6657 14.216C83.2137 14.216 82.0617 13.658 81.2097 12.542C80.3577 11.426 79.9317 9.914 79.9317 8.006C79.9317 6.098 80.3517 4.592 81.1917 3.488C82.0437 2.372 83.2017 1.814 84.6657 1.814C86.1177 1.814 87.2637 2.372 88.1037 3.488C88.9557 4.592 89.3817 6.098 89.3817 8.006C89.3817 9.914 88.9557 11.426 88.1037 12.542C87.2517 13.658 86.1057 14.216 84.6657 14.216ZM84.6657 12.38C85.5297 12.38 86.2017 11.996 86.6817 11.228C87.1737 10.46 87.4197 9.386 87.4197 8.006C87.4197 7.094 87.3057 6.314 87.0777 5.666C86.8617 5.006 86.5437 4.508 86.1237 4.172C85.7157 3.824 85.2297 3.65 84.6657 3.65C84.0897 3.65 83.5917 3.824 83.1717 4.172C82.7517 4.508 82.4337 5.006 82.2177 5.666C82.0017 6.314 81.8937 7.094 81.8937 8.006C81.8937 9.386 82.1337 10.46 82.6137 11.228C83.1057 11.996 83.7897 12.38 84.6657 12.38ZM91.4868 9.932V7.988H97.2648V9.932H91.4868ZM104 6.134C105.116 6.134 106.064 6.5 106.844 7.232C107.636 7.952 108.032 8.888 108.032 10.04C108.032 10.844 107.846 11.564 107.474 12.2C107.102 12.836 106.58 13.334 105.908 13.694C105.248 14.042 104.498 14.216 103.658 14.216C102.362 14.216 101.3 13.826 100.472 13.046C99.6555 12.266 99.2475 11.264 99.2475 10.04C99.2475 8.936 99.6795 7.634 100.544 6.134L102.938 1.958H105.062C103.682 4.406 102.854 5.888 102.578 6.404C103.046 6.224 103.52 6.134 104 6.134ZM103.64 12.38C104.348 12.38 104.93 12.164 105.386 11.732C105.842 11.288 106.07 10.724 106.07 10.04C106.07 9.344 105.842 8.78 105.386 8.348C104.93 7.904 104.348 7.682 103.64 7.682C103.184 7.682 102.77 7.784 102.398 7.988C102.026 8.192 101.732 8.474 101.516 8.834C101.312 9.182 101.21 9.584 101.21 10.04C101.21 10.724 101.438 11.288 101.894 11.732C102.362 12.164 102.944 12.38 103.64 12.38ZM114.197 14.216C112.745 14.216 111.593 13.658 110.741 12.542C109.889 11.426 109.463 9.914 109.463 8.006C109.463 6.098 109.883 4.592 110.723 3.488C111.575 2.372 112.733 1.814 114.197 1.814C115.649 1.814 116.795 2.372 117.635 3.488C118.487 4.592 118.913 6.098 118.913 8.006C118.913 9.914 118.487 11.426 117.635 12.542C116.783 13.658 115.637 14.216 114.197 14.216ZM114.197 12.38C115.061 12.38 115.733 11.996 116.213 11.228C116.705 10.46 116.951 9.386 116.951 8.006C116.951 7.094 116.837 6.314 116.609 5.666C116.393 5.006 116.075 4.508 115.655 4.172C115.247 3.824 114.761 3.65 114.197 3.65C113.621 3.65 113.123 3.824 112.703 4.172C112.283 4.508 111.965 5.006 111.749 5.666C111.533 6.314 111.425 7.094 111.425 8.006C111.425 9.386 111.665 10.46 112.145 11.228C112.637 11.996 113.321 12.38 114.197 12.38ZM121.018 9.932V7.988H126.796V9.932H121.018ZM132.649 6.332C133.873 6.332 134.875 6.704 135.655 7.448C136.447 8.192 136.843 9.122 136.843 10.238C136.843 11.378 136.453 12.326 135.673 13.082C134.893 13.838 133.921 14.216 132.757 14.216C131.605 14.216 130.645 13.856 129.877 13.136C129.121 12.416 128.725 11.498 128.689 10.382H130.633C130.657 10.97 130.867 11.45 131.263 11.822C131.659 12.194 132.157 12.38 132.757 12.38C133.369 12.38 133.873 12.176 134.269 11.768C134.677 11.36 134.881 10.85 134.881 10.238C134.881 10.034 134.851 9.836 134.791 9.644C134.743 9.452 134.671 9.278 134.575 9.122C134.479 8.954 134.359 8.804 134.215 8.672C134.083 8.54 133.933 8.426 133.765 8.33C133.597 8.234 133.411 8.162 133.207 8.114C133.015 8.066 132.805 8.042 132.577 8.042H129.409L129.175 7.772L129.823 2.03H136.015V3.794H131.389L131.119 6.332H132.649ZM143.218 14.216C141.766 14.216 140.614 13.658 139.762 12.542C138.91 11.426 138.484 9.914 138.484 8.006C138.484 6.098 138.904 4.592 139.744 3.488C140.596 2.372 141.754 1.814 143.218 1.814C144.67 1.814 145.816 2.372 146.656 3.488C147.508 4.592 147.934 6.098 147.934 8.006C147.934 9.914 147.508 11.426 146.656 12.542C145.804 13.658 144.658 14.216 143.218 14.216ZM143.218 12.38C144.082 12.38 144.754 11.996 145.234 11.228C145.726 10.46 145.972 9.386 145.972 8.006C145.972 7.094 145.858 6.314 145.63 5.666C145.414 5.006 145.096 4.508 144.676 4.172C144.268 3.824 143.782 3.65 143.218 3.65C142.642 3.65 142.144 3.824 141.724 4.172C141.304 4.508 140.986 5.006 140.77 5.666C140.554 6.314 140.446 7.094 140.446 8.006C140.446 9.386 140.686 10.46 141.166 11.228C141.658 11.996 142.342 12.38 143.218 12.38Z" fill="#4B5258"/>
<path d="M25.0081 23.2H32.1481V33H30.9021V24.348H26.2261V33H25.0081V23.2ZM39.8925 25.44H41.0545V33H39.8925V29.654H35.8465V33H34.6845V25.44H35.8465V28.534H39.8925V25.44ZM43.2238 29.668V28.52H47.6618V29.668H43.2238ZM55.3909 27.918C55.8482 28.114 56.2076 28.4267 56.4689 28.856C56.7302 29.2853 56.8609 29.766 56.8609 30.298C56.8609 31.0633 56.5762 31.7073 56.0069 32.23C55.4376 32.7433 54.7329 33 53.8929 33H49.9729V23.2H53.8369C54.6396 23.2 55.2976 23.438 55.8109 23.914C56.3336 24.39 56.5949 24.9873 56.5949 25.706C56.5949 26.1447 56.4829 26.5693 56.2589 26.98C56.0442 27.3907 55.7549 27.7033 55.3909 27.918ZM55.3489 25.874C55.3489 25.594 55.2789 25.342 55.1389 25.118C55.0082 24.894 54.8262 24.7213 54.5929 24.6C54.3596 24.4693 54.0982 24.404 53.8089 24.404H51.1769V27.344H53.8229C54.2522 27.344 54.6116 27.204 54.9009 26.924C55.1996 26.6347 55.3489 26.2847 55.3489 25.874ZM53.8789 31.782C54.3642 31.782 54.7702 31.628 55.0969 31.32C55.4236 31.012 55.5869 30.6247 55.5869 30.158C55.5869 29.7007 55.4236 29.318 55.0969 29.01C54.7702 28.702 54.3642 28.548 53.8789 28.548H51.1769V31.782H53.8789ZM62.1883 33.168C61.451 33.168 60.779 33 60.1723 32.664C59.575 32.3187 59.1037 31.8427 58.7583 31.236C58.4223 30.6293 58.2543 29.9573 58.2543 29.22C58.2543 28.0907 58.6277 27.1527 59.3743 26.406C60.1303 25.65 61.0683 25.272 62.1883 25.272C63.0843 25.272 63.859 25.5193 64.5123 26.014C65.175 26.5087 65.623 27.1667 65.8563 27.988H64.6803C64.4563 27.5027 64.1203 27.12 63.6723 26.84C63.2337 26.56 62.739 26.42 62.1883 26.42C61.4137 26.42 60.765 26.6907 60.2423 27.232C59.729 27.764 59.4723 28.4267 59.4723 29.22C59.4723 29.7427 59.589 30.2187 59.8223 30.648C60.0557 31.068 60.3777 31.404 60.7883 31.656C61.2083 31.8987 61.675 32.02 62.1883 32.02C62.739 32.02 63.229 31.88 63.6583 31.6C64.097 31.3107 64.433 30.914 64.6663 30.41H65.8703C65.637 31.25 65.1843 31.922 64.5123 32.426C63.8497 32.9207 63.075 33.168 62.1883 33.168ZM67.314 27.694V26.21H68.672V27.694H67.314ZM67.314 33V31.516H68.672V33H67.314ZM77.0583 23.522C78.029 23.522 78.8223 23.8207 79.4383 24.418C80.0636 25.0153 80.3763 25.776 80.3763 26.7C80.3763 27.6147 80.045 28.646 79.3823 29.794L77.5203 33.014H76.2463C77.3756 31.054 78.043 29.864 78.2483 29.444C77.8283 29.6493 77.3803 29.752 76.9043 29.752C76.0176 29.752 75.271 29.458 74.6643 28.87C74.0576 28.282 73.7543 27.5587 73.7543 26.7C73.7543 25.776 74.0623 25.0153 74.6783 24.418C75.3036 23.8207 76.097 23.522 77.0583 23.522ZM77.0723 28.744C77.483 28.744 77.8516 28.6553 78.1783 28.478C78.505 28.3007 78.757 28.058 78.9343 27.75C79.121 27.4327 79.2143 27.0827 79.2143 26.7C79.2143 26.1027 79.009 25.608 78.5983 25.216C78.197 24.824 77.6883 24.628 77.0723 24.628C76.447 24.628 75.929 24.824 75.5183 25.216C75.117 25.5987 74.9163 26.0933 74.9163 26.7C74.9163 27.2973 75.117 27.7873 75.5183 28.17C75.929 28.5527 76.447 28.744 77.0723 28.744ZM82.0249 27.694V26.21H83.3829V27.694H82.0249ZM82.0249 33V31.516H83.3829V33H82.0249ZM88.7212 33.168C87.6199 33.168 86.7425 32.734 86.0892 31.866C85.4452 30.998 85.1232 29.822 85.1232 28.338C85.1232 26.854 85.4452 25.6827 86.0892 24.824C86.7332 23.956 87.6105 23.522 88.7212 23.522C89.8319 23.522 90.7092 23.956 91.3532 24.824C91.9972 25.6827 92.3192 26.854 92.3192 28.338C92.3192 29.822 91.9925 30.998 91.3392 31.866C90.6952 32.734 89.8225 33.168 88.7212 33.168ZM88.7212 32.062C89.4772 32.062 90.0699 31.7353 90.4992 31.082C90.9379 30.4193 91.1572 29.5047 91.1572 28.338C91.1572 27.1807 90.9379 26.2753 90.4992 25.622C90.0699 24.9593 89.4772 24.628 88.7212 24.628C88.2265 24.628 87.7925 24.7773 87.4192 25.076C87.0552 25.3653 86.7752 25.79 86.5792 26.35C86.3832 26.91 86.2852 27.5727 86.2852 28.338C86.2852 29.5047 86.4999 30.4193 86.9292 31.082C87.3679 31.7353 87.9652 32.062 88.7212 32.062ZM97.4302 33.168C96.3288 33.168 95.4515 32.734 94.7982 31.866C94.1542 30.998 93.8322 29.822 93.8322 28.338C93.8322 26.854 94.1542 25.6827 94.7982 24.824C95.4422 23.956 96.3195 23.522 97.4302 23.522C98.5408 23.522 99.4182 23.956 100.062 24.824C100.706 25.6827 101.028 26.854 101.028 28.338C101.028 29.822 100.702 30.998 100.048 31.866C99.4042 32.734 98.5315 33.168 97.4302 33.168ZM97.4302 32.062C98.1862 32.062 98.7788 31.7353 99.2082 31.082C99.6468 30.4193 99.8662 29.5047 99.8662 28.338C99.8662 27.1807 99.6468 26.2753 99.2082 25.622C98.7788 24.9593 98.1862 24.628 97.4302 24.628C96.9355 24.628 96.5015 24.7773 96.1282 25.076C95.7642 25.3653 95.4842 25.79 95.2882 26.35C95.0922 26.91 94.9942 27.5727 94.9942 28.338C94.9942 29.5047 95.2088 30.4193 95.6382 31.082C96.0768 31.7353 96.6742 32.062 97.4302 32.062ZM106.415 29.668V28.52H110.853V29.668H106.415ZM118.27 31.894H122.246V33H115.988V32.622C117.435 31.11 118.485 29.9713 119.138 29.206C119.792 28.4313 120.221 27.8433 120.426 27.442C120.632 27.0407 120.734 26.63 120.734 26.21C120.734 25.9767 120.692 25.762 120.608 25.566C120.534 25.37 120.422 25.202 120.272 25.062C120.132 24.922 119.96 24.8147 119.754 24.74C119.549 24.6653 119.325 24.628 119.082 24.628C118.737 24.628 118.434 24.698 118.172 24.838C117.911 24.9687 117.71 25.1553 117.57 25.398C117.43 25.6407 117.36 25.916 117.36 26.224V26.448H116.212V26.224C116.212 25.692 116.329 25.2207 116.562 24.81C116.805 24.3993 117.141 24.082 117.57 23.858C118.009 23.634 118.513 23.522 119.082 23.522C119.913 23.522 120.59 23.774 121.112 24.278C121.635 24.7727 121.896 25.4167 121.896 26.21C121.896 26.6673 121.812 27.1013 121.644 27.512C121.476 27.9227 121.131 28.4733 120.608 29.164C120.095 29.8453 119.316 30.7553 118.27 31.894ZM123.19 23.69H126.116V33H124.968V24.754H123.19V23.69ZM128.441 27.694V26.21H129.799V27.694H128.441ZM128.441 33V31.516H129.799V33H128.441ZM135.137 33.168C134.036 33.168 133.159 32.734 132.505 31.866C131.861 30.998 131.539 29.822 131.539 28.338C131.539 26.854 131.861 25.6827 132.505 24.824C133.149 23.956 134.027 23.522 135.137 23.522C136.248 23.522 137.125 23.956 137.769 24.824C138.413 25.6827 138.735 26.854 138.735 28.338C138.735 29.822 138.409 30.998 137.755 31.866C137.111 32.734 136.239 33.168 135.137 33.168ZM135.137 32.062C135.893 32.062 136.486 31.7353 136.915 31.082C137.354 30.4193 137.573 29.5047 137.573 28.338C137.573 27.1807 137.354 26.2753 136.915 25.622C136.486 24.9593 135.893 24.628 135.137 24.628C134.643 24.628 134.209 24.7773 133.835 25.076C133.471 25.3653 133.191 25.79 132.995 26.35C132.799 26.91 132.701 27.5727 132.701 28.338C132.701 29.5047 132.916 30.4193 133.345 31.082C133.784 31.7353 134.381 32.062 135.137 32.062ZM143.846 33.168C142.745 33.168 141.868 32.734 141.214 31.866C140.57 30.998 140.248 29.822 140.248 28.338C140.248 26.854 140.57 25.6827 141.214 24.824C141.858 23.956 142.736 23.522 143.846 23.522C144.957 23.522 145.834 23.956 146.478 24.824C147.122 25.6827 147.444 26.854 147.444 28.338C147.444 29.822 147.118 30.998 146.464 31.866C145.82 32.734 144.948 33.168 143.846 33.168ZM143.846 32.062C144.602 32.062 145.195 31.7353 145.624 31.082C146.063 30.4193 146.282 29.5047 146.282 28.338C146.282 27.1807 146.063 26.2753 145.624 25.622C145.195 24.9593 144.602 24.628 143.846 24.628C143.352 24.628 142.918 24.7773 142.544 25.076C142.18 25.3653 141.9 25.79 141.704 26.35C141.508 26.91 141.41 27.5727 141.41 28.338C141.41 29.5047 141.625 30.4193 142.054 31.082C142.493 31.7353 143.09 32.062 143.846 32.062Z" fill="#959A9D"/>
<circle cx="11" cy="29" r="4" fill="#20FF87"/>
</svg>
